<svg xmlns="http://www.w3.org/2000/svg" version="1.1" xmlns:xlink="http://www.w3.org/1999/xlink" xmlns:svgjs="http://svgjs.dev/svgjs" width="1000" height="154" viewBox="0 0 1000 154"><g transform="matrix(1,0,0,1,-0.6060606060606233,0.10298879741110056)"><svg viewBox="0 0 396 61" data-background-color="#ffffff" preserveAspectRatio="xMidYMid meet" height="154" width="1000" xmlns="http://www.w3.org/2000/svg" xmlns:xlink="http://www.w3.org/1999/xlink"><g id="tight-bounds" transform="matrix(1,0,0,1,0.2400000000000091,-0.04079426390958929)"><svg viewBox="0 0 395.52 61.081270460932444" height="61.081270460932444" width="395.52"><g><svg viewBox="0 0 486.4743579232012 75.12760878998662" height="61.081270460932444" width="395.52"><g transform="matrix(1,0,0,1,90.9543579232012,20.80357767434554)"><svg viewBox="0 0 395.52 33.520453441295544" height="33.520453441295544" width="395.52"><g id="textblocktransform"><svg viewBox="0 0 395.52 33.520453441295544" height="33.520453441295544" width="395.52" id="textblock"><g><svg viewBox="0 0 395.52 33.520453441295544" height="33.520453441295544" width="395.52"><g transform="matrix(1,0,0,1,0,0)"><svg width="395.52" viewBox="3.0799999237060547 -37.84000015258789 447.82000732421875 38.33000183105469" height="33.520453441295544" data-palette-color="#8dbdff"><g class="undefined-text-0" data-fill-palette-color="primary" id="text-0"><path d="M3.08 0L8.84-37.35 15.21-37.35 23.71-9.77 25.15-3.81 26.54-9.79 34.74-37.35 40.82-37.35 46.85 0 42.7 0 38.16-28.22 37.48-34.81 35.99-28.17 27.56-0.02 22.75-0.02 13.96-28.32 12.23-34.81 11.4-28.27 7.28 0 3.08 0ZM55.3-17.21L55.3-37.35 59.4-37.35 59.4-17.38Q59.4-11.47 59.91-9.33 60.42-7.18 61.09-6.09 61.77-5 62.84-4.35L62.84-4.35Q64.87-3.1 68.42-3.1 71.97-3.1 73.76-3.71 75.56-4.32 76.55-5.91 77.54-7.5 77.88-10.28 78.22-13.06 78.22-17.38L78.22-17.38 78.22-37.35 82.32-37.35 82.32-17.53Q82.32-11.25 81.86-8.87 81.39-6.49 80.58-4.83 79.76-3.17 78.27-2L78.27-2Q75.14 0.49 68.94 0.49L68.94 0.49Q59.71 0.49 57.03-4.79L57.03-4.79Q55.54-7.74 55.37-12.6L55.37-12.6Q55.3-14.82 55.3-17.21L55.3-17.21ZM93.28 0L93.28-37.35 96.58-37.35 113.76-10.21 115.99-5.59 115.45-10.72 115.45-37.35 119.23-37.35 119.23 0 115.74 0 98.68-27.08 96.53-31.27 97.07-26.29 97.07 0 93.28 0ZM130.78 0L130.78-37.13Q130.78-37.13 134.44-37.4L134.44-37.4Q139.93-37.84 143.21-37.84 146.48-37.84 148.43-37.59 150.38-37.33 151.86-36.71 153.34-36.08 154.37-35.01 155.41-33.94 156.07-32.28L156.07-32.28Q157.32-29.17 157.32-23.05L157.32-23.05 157.32-19.26Q157.32-12.01 156.24-8.25L156.24-8.25Q155-3.91 151.77-2L151.77-2Q148.45 0 142.03 0L142.03 0 130.78 0ZM151.51-31.42Q150.63-32.81 148.97-33.52 147.31-34.23 143.86-34.23 140.42-34.23 134.93-33.81L134.93-33.81 134.93-3.49 142.69-3.49Q147.23-3.49 149.43-4.98L149.43-4.98Q151.58-6.42 152.31-9.94L152.31-9.94Q152.95-12.82 152.95-19.26L152.95-19.26 152.95-23.07Q152.95-29.15 151.51-31.42L151.51-31.42ZM182.02 0.49L180.51 0.49Q171.82 0.49 169.03-4.98L169.03-4.98Q167.4-8.15 167.1-13.45L167.1-13.45Q166.98-15.94 166.98-18.87 166.98-21.8 167.15-24.43 167.32-27.05 167.82-29.17 168.32-31.3 169.24-32.92 170.16-34.55 171.65-35.64L171.65-35.64Q174.72-37.84 180.51-37.84L180.51-37.84 182.02-37.84Q191.08-37.84 193.62-32.96L193.62-32.96Q195.2-29.91 195.4-24.46L195.4-24.46Q195.5-21.8 195.5-18.84 195.5-15.87 195.35-13.37 195.2-10.86 194.74-8.74 194.28-6.62 193.39-4.91 192.49-3.2 190.98-2L190.98-2Q187.86 0.49 182.02 0.49L182.02 0.49ZM180.51-3.03L181.97-3.03Q184.66-3.03 186.43-3.61 188.2-4.2 189.22-5.66L189.22-5.66Q191.13-8.37 191.13-16.06L191.13-16.06 191.13-18.7Q191.13-22.39 190.93-25.27 190.74-28.15 189.88-30.13L189.88-30.13Q188.12-34.23 182.27-34.23L182.27-34.23 180.21-34.23Q174.26-34.23 172.6-30.4L172.6-30.4Q171.55-27.95 171.45-24.63 171.35-21.31 171.35-18.7L171.35-18.7 171.35-16.06Q171.35-8.86 173.5-5.91L173.5-5.91Q175.58-3.03 180.51-3.03L180.51-3.03Z" fill="#8dbdff" data-fill-palette-color="primary"></path><path d="M201.26 0L201.26-37.35 205.41-37.35 205.41-20.48 223.06-20.48 223.06-37.35 227.19-37.35 227.19 0 223.06 0 223.06-16.94 205.41-16.94 205.41 0 201.26 0ZM239.22 0L239.22-37.35 243.35-37.35 243.35 0 239.22 0ZM251.7-2.47L253.31-5.88Q258.85-2.95 264.15-2.95L264.15-2.95Q270.3-2.95 271.35-6.88L271.35-6.88Q271.69-8.18 271.69-9.86L271.69-9.86 271.69-10.82Q271.69-12.52 271.45-13.57 271.2-14.62 270.42-15.28L270.42-15.28Q269.15-16.38 264.42-17.11L264.42-17.11Q260.19-17.77 258.58-18.36 256.97-18.95 255.93-19.64 254.89-20.34 254.16-21.39L254.16-21.39Q252.65-23.58 252.65-27.47L252.65-27.47 252.65-27.71Q252.65-35.77 259.34-37.35L259.34-37.35Q261.46-37.84 264.15-37.84L264.15-37.84 264.46-37.84Q270.74-37.84 274.72-36.04L274.72-36.04 273.45-32.3Q268.64-34.38 264.59-34.38L264.59-34.38 264.37-34.38Q259.9-34.38 258.21-32.69L258.21-32.69Q256.8-31.27 256.8-27.78L256.8-27.78 256.8-27.69Q256.8-23.71 259-22.46L259-22.46Q260.49-21.66 264.33-21.04 268.18-20.43 270.06-20.01 271.94-19.58 273.25-18.6L273.25-18.6Q275.99-16.55 275.99-10.82L275.99-10.82 275.99-10.5Q275.99-1.73 268.93-0.05L268.93-0.05Q266.76 0.49 264.83 0.49 262.9 0.49 261.33 0.35 259.75 0.22 258.12-0.12L258.12-0.12Q254.28-0.9 251.7-2.47L251.7-2.47ZM289.02 0L289.02-33.74 279.06-33.74 279.06-37.35 303.48-37.35 303.48-33.74 293.17-33.74 293.17 0 289.02 0ZM323.32 0.49L321.81 0.49Q313.12 0.49 310.33-4.98L310.33-4.98Q308.7-8.15 308.41-13.45L308.41-13.45Q308.28-15.94 308.28-18.87 308.28-21.8 308.45-24.43 308.62-27.05 309.13-29.17 309.63-31.3 310.54-32.92 311.46-34.55 312.95-35.64L312.95-35.64Q316.02-37.84 321.81-37.84L321.81-37.84 323.32-37.84Q332.38-37.84 334.92-32.96L334.92-32.96Q336.51-29.91 336.7-24.46L336.7-24.46Q336.8-21.8 336.8-18.84 336.8-15.87 336.65-13.37 336.51-10.86 336.04-8.74 335.58-6.62 334.69-4.91 333.8-3.2 332.28-2L332.28-2Q329.16 0.49 323.32 0.49L323.32 0.49ZM321.81-3.03L323.27-3.03Q325.96-3.03 327.73-3.61 329.5-4.2 330.52-5.66L330.52-5.66Q332.43-8.37 332.43-16.06L332.43-16.06 332.43-18.7Q332.43-22.39 332.23-25.27 332.04-28.15 331.18-30.13L331.18-30.13Q329.43-34.23 323.57-34.23L323.57-34.23 321.52-34.23Q315.56-34.23 313.9-30.4L313.9-30.4Q312.85-27.95 312.75-24.63 312.65-21.31 312.65-18.7L312.65-18.7 312.65-16.06Q312.65-8.86 314.8-5.91L314.8-5.91Q316.88-3.03 321.81-3.03L321.81-3.03ZM346.98 0L346.98-37.23Q354.91-37.84 360.31-37.84L360.31-37.84 360.8-37.84Q366.68-37.84 369.05-35.21L369.05-35.21Q371.02-32.93 371.02-27.78L371.02-27.78Q371.02-21.19 369.14-17.97L369.14-17.97Q367.22-14.7 362.75-13.87L362.75-13.87Q363.58-12.84 364.38-11.72L364.38-11.72 365.82-9.64 372.25 0 367.36 0 361.75-8.84Q359.4-12.4 358.28-13.55L358.28-13.55 358.01-13.55Q356.28-13.57 354.67-13.62L354.67-13.62 351.13-13.77 351.13 0 346.98 0ZM351.13-34.13L351.13-17.07Q353.69-16.94 359.18-16.94L359.18-16.94Q363.7-16.94 365.34-19.48L365.34-19.48Q366.73-21.7 366.73-27.25L366.73-27.25Q366.73-31.91 364.65-33.35L364.65-33.35Q363.43-34.2 361.98-34.3 360.53-34.4 359.44-34.4 358.35-34.4 357.34-34.39 356.33-34.38 355.33-34.35 354.33-34.33 353.3-34.28L353.3-34.28 351.13-34.13ZM380.84 0L380.84-37.35 384.96-37.35 384.96 0 380.84 0ZM392.43 0L404.66-37.35 410.35-37.35 423.41 0 418.99 0 415.28-10.96 400.24-10.96 396.73 0 392.43 0ZM401.37-14.45L414.11-14.45 407.52-34.06 406.76-31.27 401.37-14.45ZM426.61-2.47L428.22-5.88Q433.76-2.95 439.06-2.95L439.06-2.95Q445.21-2.95 446.26-6.88L446.26-6.88Q446.6-8.18 446.6-9.86L446.6-9.86 446.6-10.82Q446.6-12.52 446.36-13.57 446.11-14.62 445.33-15.28L445.33-15.28Q444.06-16.38 439.33-17.11L439.33-17.11Q435.1-17.77 433.49-18.36 431.88-18.95 430.84-19.64 429.81-20.34 429.07-21.39L429.07-21.39Q427.56-23.58 427.56-27.47L427.56-27.47 427.56-27.71Q427.56-35.77 434.25-37.35L434.25-37.35Q436.37-37.84 439.06-37.84L439.06-37.84 439.38-37.84Q445.65-37.84 449.63-36.04L449.63-36.04 448.36-32.3Q443.55-34.38 439.5-34.38L439.5-34.38 439.28-34.38Q434.81-34.38 433.13-32.69L433.13-32.69Q431.71-31.27 431.71-27.78L431.71-27.78 431.71-27.69Q431.71-23.71 433.91-22.46L433.91-22.46Q435.4-21.66 439.24-21.04 443.09-20.43 444.97-20.01 446.85-19.58 448.17-18.6L448.17-18.6Q450.9-16.55 450.9-10.82L450.9-10.82 450.9-10.5Q450.9-1.73 443.84-0.05L443.84-0.05Q441.67 0.49 439.74 0.49 437.81 0.49 436.24 0.35 434.66 0.22 433.03-0.12L433.03-0.12Q429.2-0.9 426.61-2.47L426.61-2.47Z" fill="#8dbdff" data-fill-palette-color="primary"></path></g></svg></g></svg></g></svg></g></svg></g><g><svg viewBox="0 0 75.12760878998662 75.12760878998662" height="75.12760878998662" width="75.12760878998662"><g><svg></svg></g><g id="icon-0"><svg viewBox="0 0 75.12760878998662 75.12760878998662" height="75.12760878998662" width="75.12760878998662"><g><path d="M0 37.564c0-20.746 16.818-37.564 37.564-37.564 20.746 0 37.564 16.818 37.564 37.564 0 20.746-16.818 37.564-37.564 37.564-20.746 0-37.564-16.818-37.564-37.564zM37.564 72.105c19.076 0 34.541-15.464 34.541-34.541 0-19.076-15.464-34.541-34.541-34.541-19.076 0-34.541 15.464-34.541 34.541 0 19.076 15.464 34.541 34.541 34.541z" data-fill-palette-color="accent" fill="#8dbdff" stroke="transparent"></path></g><g transform="matrix(1,0,0,1,21.500713148035285,21.781656702181778)"><svg viewBox="0 0 32.126182493916055 31.564295385623073" height="31.564295385623073" width="32.126182493916055"><g><svg xmlns="http://www.w3.org/2000/svg" xmlns:xlink="http://www.w3.org/1999/xlink" version="1.1" x="0" y="0" viewBox="0 0.875 100 98.2509994506836" enable-background="new 0 0 100 100" xml:space="preserve" height="31.564295385623073" width="32.126182493916055" class="icon-s-0" data-fill-palette-color="accent" id="s-0"><path fill-rule="evenodd" clip-rule="evenodd" d="M100 49.666c0 13.657-4.907 25.305-14.72 34.946-9.814 9.676-21.564 14.514-35.254 14.514-13.69 0-25.426-4.753-35.204-14.256C4.941 75.296 0 63.682 0 50.026c0-13.655 4.941-25.287 14.822-34.895C24.601 5.627 36.336 0.877 50.026 0.875c13.689 0 25.406 4.684 35.151 14.05C95.059 24.431 100 36.011 100 49.666zM95.119 49.388c0-12.123-4.478-22.514-13.431-31.174C72.8 9.652 62.278 5.373 50.122 5.371l-4.901 10.048 5.343 1.078 4.166-4.166 7.353 0.49 1.471 3.921-4.411 4.411v2.647l2.745 0.539 1.274-2.059 4.853-3.039-0.147 2.059 1.813 3.137-2.156 2.254 1.372 1.324-3.235 0.196 1.324 2.647-7.01 3.333 1.078 3.971h-2.206l-0.979-3.921-5.146-0.098-0.932 1.52-2.107-0.98-3.432 3.431 2.745 3.284-0.098 3.627 2.892 2.157 16.861 1.912 5.343 3.774-0.638 9.362L61.739 73.846c-0.752 0.753-1.487 2.844-2.206 6.275-0.687 3.234-0.931 5.538-0.734 6.91l-1.765 2.01c-1.373-2.712-3.154-6.879-5.344-12.499-0.523-1.927-0.979-4.378-1.372-7.353-0.294-2.45-0.588-4.916-0.882-7.4l-7.353-6.471 6.52-7.695-2.696-3.873c-4.151-0.849-6.847-1.601-8.088-2.254-1.242-0.687-3.382-2.564-6.421-5.637l2.549 4.95-1.716 0.735-3.97-7.451 0.784-6.96-1.226-4.902-3.823-3.725-2.794-0.686-2.451 1.715-2.695 0.687C8.638 28.786 4.93 38.621 4.93 49.73c0 12.418 4.443 22.957 13.333 31.615 8.789 8.562 19.408 12.84 31.859 12.842 12.45 0 23.053-4.362 31.812-13.088C90.723 72.376 95.117 61.805 95.119 49.388z" fill="#8dbdff" data-fill-palette-color="accent"></path></svg></g></svg></g></svg></g></svg></g></svg></g><defs></defs></svg><rect width="395.52" height="61.081270460932444" fill="none" stroke="none" visibility="hidden"></rect></g></svg></g></svg>